<svg width="1200" height="760" viewBox="0 0 1200 760" fill="none" xmlns="http://www.w3.org/2000/svg">
  <rect width="1200" height="760" rx="30" fill="#F1F5F9"/>
  <rect x="24" y="24" width="1152" height="712" rx="24" fill="#FFFFFF"/>
  <rect x="48" y="48" width="260" height="664" rx="18" fill="#0F172A"/>
  <rect x="332" y="48" width="844" height="80" rx="16" fill="#0F766E"/>
  <circle cx="372" cy="88" r="18" fill="#F59E0B"/>
  <rect x="404" y="78" width="220" height="14" rx="7" fill="#ECFEFF"/>
  <rect x="404" y="98" width="140" height="10" rx="5" fill="#CCFBF1"/>

  <rect x="332" y="148" width="844" height="484" rx="16" fill="#F8FAFC"/>
  <rect x="364" y="186" width="320" height="78" rx="16" fill="#FFFFFF" stroke="#CBD5E1"/>
  <rect x="392" y="210" width="250" height="10" rx="5" fill="#334155"/>
  <rect x="392" y="228" width="200" height="8" rx="4" fill="#64748B"/>

  <rect x="814" y="290" width="320" height="84" rx="16" fill="#0F766E"/>
  <rect x="842" y="316" width="250" height="10" rx="5" fill="#ECFEFF"/>
  <rect x="842" y="334" width="170" height="8" rx="4" fill="#CCFBF1"/>

  <rect x="364" y="402" width="360" height="108" rx="16" fill="#FFFFFF" stroke="#CBD5E1"/>
  <rect x="392" y="430" width="300" height="10" rx="5" fill="#334155"/>
  <rect x="392" y="448" width="270" height="8" rx="4" fill="#64748B"/>
  <rect x="392" y="464" width="214" height="8" rx="4" fill="#64748B"/>

  <rect x="332" y="652" width="844" height="60" rx="14" fill="#FFFFFF" stroke="#CBD5E1"/>
  <rect x="356" y="672" width="640" height="18" rx="9" fill="#E2E8F0"/>
  <circle cx="1132" cy="682" r="18" fill="#0F766E"/>

  <rect x="70" y="86" width="216" height="14" rx="7" fill="#94A3B8"/>
  <rect x="70" y="116" width="170" height="10" rx="5" fill="#64748B"/>
  <rect x="70" y="172" width="216" height="62" rx="12" fill="#1E293B"/>
  <rect x="70" y="250" width="216" height="62" rx="12" fill="#1E293B"/>
  <rect x="70" y="328" width="216" height="62" rx="12" fill="#334155"/>
</svg>
