<svg width="1200" height="760" viewBox="0 0 1200 760" fill="none" xmlns="http://www.w3.org/2000/svg">
  <rect width="1200" height="760" rx="30" fill="#F0FDFA"/>
  <rect x="24" y="24" width="1152" height="712" rx="24" fill="#FFFFFF"/>
  <rect x="48" y="48" width="1104" height="82" rx="16" fill="#0F766E"/>
  <rect x="84" y="81" width="220" height="14" rx="7" fill="#ECFEFF"/>
  <rect x="1020" y="74" width="100" height="30" rx="10" fill="#CCFBF1"/>

  <rect x="48" y="156" width="350" height="180" rx="18" fill="#F8FAFC" stroke="#CBD5E1"/>
  <rect x="72" y="188" width="180" height="12" rx="6" fill="#0F172A"/>
  <rect x="72" y="214" width="120" height="44" rx="12" fill="#0F766E"/>
  <rect x="210" y="228" width="140" height="10" rx="5" fill="#64748B"/>

  <rect x="426" y="156" width="350" height="180" rx="18" fill="#FFF7ED" stroke="#FED7AA"/>
  <rect x="450" y="188" width="210" height="12" rx="6" fill="#7C2D12"/>
  <rect x="450" y="214" width="130" height="44" rx="12" fill="#F59E0B"/>
  <rect x="594" y="228" width="150" height="10" rx="5" fill="#B45309"/>

  <rect x="804" y="156" width="348" height="180" rx="18" fill="#EEF2FF" stroke="#C7D2FE"/>
  <rect x="828" y="188" width="190" height="12" rx="6" fill="#3730A3"/>
  <rect x="828" y="214" width="140" height="44" rx="12" fill="#4F46E5"/>
  <rect x="978" y="228" width="144" height="10" rx="5" fill="#4338CA"/>

  <rect x="48" y="364" width="720" height="348" rx="20" fill="#F8FAFC" stroke="#CBD5E1"/>
  <path d="M92 644C152 610 208 552 278 548C342 545 380 592 438 592C506 592 556 510 640 500C688 494 724 510 744 528" stroke="#0F766E" stroke-width="12" stroke-linecap="round"/>
  <circle cx="278" cy="548" r="10" fill="#14B8A6"/>
  <circle cx="438" cy="592" r="10" fill="#14B8A6"/>
  <circle cx="640" cy="500" r="10" fill="#14B8A6"/>

  <rect x="794" y="364" width="358" height="348" rx="20" fill="#FFFFFF" stroke="#CBD5E1"/>
  <rect x="822" y="396" width="240" height="12" rx="6" fill="#0F172A"/>
  <rect x="822" y="422" width="280" height="10" rx="5" fill="#64748B"/>
  <rect x="822" y="472" width="300" height="58" rx="12" fill="#F8FAFC"/>
  <rect x="822" y="542" width="300" height="58" rx="12" fill="#F8FAFC"/>
  <rect x="822" y="612" width="300" height="58" rx="12" fill="#F8FAFC"/>
</svg>
