<svg width="960" height="720" viewBox="0 0 960 720" fill="none" xmlns="http://www.w3.org/2000/svg">
  <defs>
    <linearGradient id="g1" x1="80" y1="60" x2="860" y2="650" gradientUnits="userSpaceOnUse">
      <stop stop-color="#0D9488" stop-opacity="0.22"/>
      <stop offset="1" stop-color="#F59E0B" stop-opacity="0.25"/>
    </linearGradient>
  </defs>
  <rect x="24" y="24" width="912" height="672" rx="36" fill="url(#g1)"/>
  <rect x="84" y="84" width="792" height="552" rx="28" fill="#FFFFFF"/>

  <rect x="132" y="126" width="350" height="56" rx="14" fill="#0F766E"/>
  <circle cx="168" cy="154" r="15" fill="#F59E0B"/>
  <rect x="192" y="141" width="248" height="12" rx="6" fill="#ECFEFF"/>
  <rect x="192" y="159" width="180" height="10" rx="5" fill="#CCFBF1"/>

  <rect x="132" y="216" width="336" height="130" rx="18" fill="#F0FDFA" stroke="#99F6E4"/>
  <rect x="154" y="242" width="210" height="12" rx="6" fill="#115E59"/>
  <rect x="154" y="264" width="276" height="10" rx="5" fill="#0F766E" opacity="0.75"/>
  <rect x="154" y="282" width="250" height="10" rx="5" fill="#0F766E" opacity="0.65"/>
  <rect x="154" y="300" width="182" height="10" rx="5" fill="#0F766E" opacity="0.55"/>

  <rect x="510" y="216" width="320" height="180" rx="20" fill="#FFF7ED" stroke="#FED7AA"/>
  <circle cx="560" cy="272" r="28" fill="#FDBA74"/>
  <rect x="602" y="250" width="190" height="12" rx="6" fill="#9A3412"/>
  <rect x="602" y="272" width="164" height="10" rx="5" fill="#B45309" opacity="0.8"/>
  <rect x="602" y="290" width="188" height="10" rx="5" fill="#B45309" opacity="0.6"/>
  <rect x="602" y="316" width="120" height="32" rx="9" fill="#0F766E"/>

  <rect x="132" y="380" width="698" height="210" rx="22" fill="#F8FAFC" stroke="#E2E8F0"/>
  <rect x="162" y="414" width="280" height="24" rx="10" fill="#E2E8F0"/>
  <rect x="162" y="450" width="620" height="14" rx="7" fill="#CBD5E1"/>
  <rect x="162" y="474" width="580" height="14" rx="7" fill="#CBD5E1"/>
  <rect x="162" y="498" width="520" height="14" rx="7" fill="#CBD5E1"/>
  <rect x="162" y="530" width="160" height="36" rx="12" fill="#0F766E"/>
  <rect x="336" y="530" width="160" height="36" rx="12" fill="#E2E8F0"/>
</svg>
